0.06m3min_grf.mot
version=1
nRows=12
nColumns 19
inDegrees=yes
endheader
time	1_ground_force_vx	1_ground_force_vy	1_ground_force_vz	1_ground_force_px	1_ground_force_py	1_ground_force_pz	1_ground_torque_x	1_ground_torque_y	1_ground_torque_z	2_ground_force_vx	2_ground_force_vy	2_ground_force_vz	2_ground_force_px	2_ground_force_py	2_ground_force_pz	2_ground_torque_x	2_ground_torque_y	2_ground_torque_z
            1.250000	           -2.414201	          633.442391	          -36.806918	           -0.189661	            0.006047	           -0.362510	            0.006210	           -1.629380	            0.094677	           -0.017065	          554.880312	           43.980191	           -0.207114	            0.005563	           -0.649177	           -0.000034	            1.116923	            0.088528
            1.250500	           -1.679107	          627.132478	          -36.652368	           -0.189557	            0.006048	           -0.362593	            0.004216	           -1.574565	            0.092024	            0.139997	          550.277956	           43.729065	           -0.207043	            0.005564	           -0.649477	            0.000287	            1.126518	            0.089521
            1.251000	           -1.448236	          621.182742	          -36.449169	           -0.189645	            0.006048	           -0.362700	            0.003841	           -1.647553	            0.096674	            0.213288	          542.913425	           43.374266	           -0.206946	            0.005563	           -0.649123	            0.000445	            1.131775	            0.090419
            1.251500	           -1.079529	          615.412738	          -36.107967	           -0.189574	            0.006047	           -0.362464	            0.002846	           -1.622355	            0.095188	            0.608711	          537.205944	           43.400665	           -0.206916	            0.005563	           -0.649154	            0.001218	            1.074555	            0.086813
            1.252000	           -0.757560	          610.184869	          -36.085320	           -0.189636	            0.006047	           -0.362397	            0.001966	           -1.583466	            0.093644	            0.722102	          531.683948	           42.817777	           -0.206912	            0.005564	           -0.649214	            0.001558	            1.147328	            0.092397
            1.252500	           -0.251973	          604.235775	          -36.020367	           -0.189667	            0.006046	           -0.362268	            0.000655	           -1.570358	            0.093614	            0.792879	          525.054686	           42.794103	           -0.206885	            0.005562	           -0.648745	            0.001776	            1.176298	            0.095873
            1.253000	           -0.021136	          598.466335	          -35.816395	           -0.189762	            0.006045	           -0.362062	            0.000055	           -1.550657	            0.092802	            1.141349	          519.347995	           42.585882	           -0.206965	            0.005562	           -0.648917	            0.002498	            1.136542	            0.093195
            1.253500	            0.300491	          593.239177	          -35.931319	           -0.189620	            0.006045	           -0.361841	           -0.000829	           -1.636873	            0.099142	            1.254261	          514.008572	           42.426003	           -0.206810	            0.005563	           -0.649007	            0.002715	            1.112791	            0.091849
            1.254000	            0.760708	          586.568422	          -35.731773	           -0.189924	            0.006046	           -0.362207	           -0.002115	           -1.630697	            0.099337	            1.277858	          507.381880	           41.651499	           -0.206849	            0.005563	           -0.648853	            0.002821	            1.120011	            0.091943
            1.254500	            1.083393	          581.159077	          -35.434771	           -0.189789	            0.006045	           -0.361890	           -0.003064	           -1.643397	            0.100202	            1.764987	          502.227220	           41.679830	           -0.206966	            0.005563	           -0.649085	            0.003922	            1.115884	            0.092607
            1.255000	            1.451582	          574.489016	          -35.372569	           -0.189649	            0.006046	           -0.362177	           -0.004102	           -1.623589	            0.099968	            1.782705	          497.257079	           41.145881	           -0.206904	            0.005565	           -0.649619	            0.004037	            1.126088	            0.093179
            1.255500	            1.728131	          569.440647	          -35.165611	           -0.190031	            0.006044	           -0.361856	           -0.004878	           -1.607313	            0.099259	            1.991852	          491.182375	           40.701765	           -0.206782	            0.005564	           -0.649100	            0.004548	            1.121515	            0.092934
